<svg version="1.1" id="Layer_1" xmlns="http://www.w3.org/2000/svg" xmlns:xlink="http://www.w3.org/1999/xlink" x="0px" y="0px"
	 width="100%" viewBox="0 0 464 576" enable-background="new 0 0 464 576" xml:space="preserve">
<path fill="#000000" opacity="1.000000" stroke="none" 
	d="
M300.240967,241.768860 
	C299.921661,240.935226 299.770203,240.457382 299.575500,239.997864 
	C294.179779,227.265060 294.156036,226.793533 280.671631,227.452393 
	C258.029938,228.558640 240.386719,210.943146 238.602188,186.462982 
	C237.264679,168.115326 244.043762,153.356003 257.089569,140.969635 
	C258.684296,139.455490 260.944305,138.217209 260.811768,135.139999 
	C257.115387,134.806473 254.097137,136.607452 250.908630,137.745514 
	C236.508759,142.885284 230.514328,154.794693 227.504868,168.317078 
	C223.555801,186.061417 227.832901,202.606155 237.127029,217.992661 
	C250.981842,240.929413 268.956879,260.667175 286.006042,281.133820 
	C299.003601,296.736725 312.461090,312.002777 322.406342,329.908722 
	C334.228943,351.194672 336.590637,373.546753 330.565308,396.994629 
	C329.935333,399.446320 329.150757,400.909424 326.362640,400.762573 
	C306.718536,399.727905 287.059265,400.496735 267.407349,400.377563 
	C237.419601,400.195648 207.430023,400.294708 177.441238,400.314301 
	C167.489349,400.320801 167.231796,400.454712 164.338486,390.879486 
	C155.901886,362.959137 149.755539,334.611511 147.464767,305.416534 
	C146.265091,290.127136 145.190247,274.861755 145.776779,259.564209 
	C146.983719,228.084442 151.473419,197.143784 166.123489,168.772522 
	C180.482452,140.965012 201.291977,119.093819 229.819412,105.437813 
	C246.946823,97.238968 265.274628,93.021645 284.208679,91.982605 
	C292.340912,91.536324 300.404999,90.840836 308.490784,89.140800 
	C309.885986,93.112534 309.396545,96.716988 308.780365,100.299011 
	C307.851807,105.696785 308.351746,110.583710 311.318481,115.566536 
	C319.881317,129.948364 324.926544,145.898682 330.694733,161.497421 
	C338.773132,183.343613 346.138611,205.468491 354.788300,227.082260 
	C359.403900,238.615814 356.488098,249.648987 355.660400,260.938049 
	C355.505951,263.044403 354.033173,264.386169 352.065918,265.367340 
	C346.573853,268.106476 340.990723,270.722046 336.353455,274.893738 
	C332.971191,277.936462 329.231689,277.909790 325.185608,276.286957 
	C319.163605,273.871674 313.142639,271.412018 306.979401,269.407227 
	C303.695190,268.338959 302.453552,266.707977 302.676025,263.301514 
	C303.143951,256.135651 303.226440,248.963104 300.240967,241.768860 
z"/>
<path fill="#000000" opacity="1.000000" stroke="none" 
	d="
M246.000000,412.904816 
	C274.059448,412.729675 301.616333,413.386932 329.432983,412.396118 
	C329.360748,413.805328 329.457733,414.482056 329.276123,415.073212 
	C326.347900,424.605408 329.095306,431.967865 337.421265,437.488190 
	C346.326599,443.392609 353.485107,450.834106 357.811310,460.862000 
	C361.586670,469.613098 362.232697,478.896576 363.180878,488.144318 
	C363.692017,493.129211 360.749603,494.112915 356.337616,494.103882 
	C308.350311,494.005707 260.362701,494.032043 212.375229,494.068634 
	C188.715820,494.086670 165.056442,494.191833 141.397095,494.268127 
	C134.633743,494.289948 132.168823,492.235840 132.782959,485.244446 
	C134.453522,466.226166 142.490814,450.399689 158.128006,439.041382 
	C166.085815,433.261108 169.557129,426.321930 166.186920,416.667389 
	C165.919998,415.902710 165.893616,415.042419 165.840149,414.221039 
	C165.820587,413.920441 166.047318,413.603821 166.305542,412.905518 
	C192.609161,412.905518 219.054581,412.905518 246.000000,412.904816 
z"/>
<path fill="#000000" opacity="1.000000" stroke="none" 
	d="
M347.980652,506.685242 
	C353.811249,507.062134 359.482086,505.275818 364.115540,509.797089 
	C367.121979,512.730774 369.235046,515.909790 369.311920,520.180359 
	C369.371857,523.510193 369.482788,526.852600 369.274811,530.170898 
	C368.803314,537.694641 363.817078,542.285828 356.250763,542.287903 
	C283.452271,542.308105 210.653763,542.317810 137.855255,542.320618 
	C132.075058,542.320862 127.492844,537.823975 126.856972,531.096191 
	C126.482368,527.132751 126.629410,523.106262 126.742386,519.113770 
	C126.908913,513.228699 134.151428,506.486755 141.083603,506.516296 
	C209.882919,506.809631 278.684021,506.689148 347.980652,506.685242 
z"/>
</svg>