<svg version="1.1" id="Layer_1" xmlns="http://www.w3.org/2000/svg" xmlns:xlink="http://www.w3.org/1999/xlink" x="0px" y="0px"
	 width="100%" viewBox="0 0 944 928" enable-background="new 0 0 944 928" xml:space="preserve">
<path fill="#000000" opacity="1.000000" stroke="none" 
	d="
M679.592041,126.563316 
	C684.470764,125.206978 688.913513,123.758240 693.457092,122.775002 
	C701.049072,121.132072 706.729126,117.292267 711.925537,111.249573 
	C725.592590,95.356560 743.785828,85.817818 762.770691,77.730652 
	C769.649414,74.800446 770.034302,75.314827 772.165894,82.591537 
	C776.501160,97.391075 776.564270,112.492447 775.880127,127.652397 
	C775.739197,130.775452 776.477905,133.001251 778.669434,135.192490 
	C809.184448,165.703537 839.645691,196.268433 870.097595,226.842499 
	C878.327759,235.105637 886.484314,243.442245 894.672852,251.746872 
	C904.730469,261.947021 906.160950,270.947174 899.781982,283.869690 
	C889.034790,305.641235 860.588074,314.645935 840.609192,302.457733 
	C831.711609,297.029724 827.028015,288.327972 824.268372,278.736267 
	C822.818176,273.695923 820.455811,271.093414 815.362976,269.511047 
	C794.076843,262.897369 774.323608,253.019318 756.060181,240.200562 
	C754.734314,239.269958 753.530518,237.971451 750.984985,238.179688 
	C750.094055,243.152100 748.691406,248.254410 748.357666,253.425690 
	C747.714539,263.390167 746.112793,273.253693 745.998047,283.286652 
	C745.797119,300.861908 748.571594,318.086212 751.031189,335.375244 
	C754.308228,358.409576 758.213013,381.334015 760.406067,404.549286 
	C762.232727,423.886139 762.604370,443.130981 761.238647,462.404297 
	C757.999695,508.112640 744.472229,550.386902 718.873962,588.726135 
	C686.289917,637.528076 652.260864,685.242737 614.597168,730.284241 
	C611.415955,734.088623 610.052673,737.914490 610.038574,742.917908 
	C609.924438,783.410522 609.543762,823.902283 609.235962,864.394348 
	C609.182556,871.416504 608.177246,872.381470 601.013184,872.375122 
	C589.513489,872.364990 578.013794,872.359924 566.514160,872.321228 
	C560.767273,872.301880 559.372070,871.113525 558.905640,865.528931 
	C557.852600,852.921997 557.033142,840.294373 555.871643,827.697876 
	C553.672119,803.844727 551.866028,779.935059 548.826965,756.185669 
	C546.169861,735.421143 548.359497,715.563904 554.891785,695.783081 
	C563.285889,670.364502 572.753235,645.269409 579.256836,619.256287 
	C583.617859,601.812744 587.737183,584.198425 589.501892,566.358948 
	C591.268188,548.502869 575.376709,538.067566 559.350952,543.870239 
	C535.868652,552.372803 513.103760,562.653870 489.844177,571.708862 
	C467.332642,580.472656 444.356842,587.113831 419.927673,586.078003 
	C403.273010,585.371887 386.968292,581.652954 370.583038,578.808594 
	C366.595398,578.116455 366.115662,576.033264 368.809021,572.217285 
	C376.132904,561.840698 382.752808,551.052856 387.318939,539.176331 
	C394.809509,519.693542 398.392120,499.772247 392.410309,479.143524 
	C391.286377,475.267609 390.569702,470.930725 386.488312,468.612732 
	C383.815491,469.669739 384.110535,472.147369 383.636505,474.129517 
	C376.975372,501.981598 367.553040,528.655396 351.555359,552.740967 
	C334.311676,578.702454 311.770782,598.245605 283.062500,610.479126 
	C278.242584,612.532959 274.735718,615.595581 271.929535,619.963135 
	C250.140213,653.875854 228.257355,687.728577 206.353638,721.567627 
	C204.715057,724.099060 204.376511,726.489258 204.817215,729.541077 
	C206.170776,738.914246 206.963730,748.367004 208.066650,757.778076 
	C209.709351,771.794678 211.230484,785.830505 213.211243,799.800354 
	C214.076904,805.905640 214.266357,812.047668 215.064499,818.159973 
	C217.130005,833.978027 218.596558,849.878845 220.056747,865.769165 
	C220.606949,871.756775 219.605453,872.484131 213.756790,872.464233 
	C200.424042,872.419006 187.089584,872.282471 173.759262,872.452393 
	C169.365112,872.508484 167.445312,870.591797 166.671692,866.535034 
	C160.412369,833.712463 154.115265,800.897095 147.760315,768.092896 
	C145.422714,756.026306 142.713165,744.029663 140.514481,731.939026 
	C138.511246,720.923157 140.528564,710.426270 145.664413,700.487488 
	C158.507401,675.633911 171.104507,650.649902 184.262924,625.964905 
	C188.065613,618.831116 188.024918,611.870544 187.327560,604.285156 
	C185.333847,582.599182 182.000122,560.931091 184.730255,539.061707 
	C191.491150,484.904388 216.031830,439.605377 253.709442,400.862000 
	C255.019760,399.514618 257.047791,398.515717 256.836456,395.580505 
	C249.831070,396.070679 243.109772,397.643829 236.507980,399.536713 
	C213.330093,406.182312 193.204651,418.281219 175.602707,434.596069 
	C166.145767,443.361542 159.862167,454.292297 155.263428,466.268768 
	C149.777512,480.555786 144.790894,495.028748 138.231354,508.906555 
	C129.080078,528.267639 115.139847,542.267395 95.224258,550.659729 
	C77.277107,558.222473 58.940552,563.745361 39.450516,565.047668 
	C37.328472,565.189453 34.724041,565.687744 33.618225,563.330750 
	C32.452217,560.845398 34.882278,559.417480 36.308708,557.951111 
	C69.221260,524.118774 94.308037,485.164978 113.149384,441.963837 
	C122.393883,420.767242 134.080795,400.948547 151.425949,385.165100 
	C174.837189,363.861786 201.384140,348.191895 232.514359,340.925812 
	C260.397278,334.417725 288.503357,334.211182 316.902893,336.541138 
	C340.148712,338.448334 363.230743,341.628967 386.401123,344.084351 
	C410.426117,346.630280 434.420441,349.418335 458.613129,348.897217 
	C489.927032,348.222717 520.197205,342.828308 548.040222,327.496429 
	C550.147217,326.336212 552.778625,325.703461 553.509033,322.580780 
	C550.523682,319.718018 546.486816,319.957184 542.901184,319.133728 
	C536.742065,317.719299 530.490356,316.712830 524.297913,315.436035 
	C522.570007,315.079742 520.313293,315.058350 519.823120,312.875702 
	C519.258484,310.361603 521.586426,309.497559 523.184998,308.461395 
	C539.870483,297.645630 555.469543,285.470642 569.589417,271.448944 
	C572.779663,268.280975 575.822327,264.959534 578.838623,261.623474 
	C580.137268,260.187195 582.211609,258.794312 581.474060,256.584290 
	C580.721008,254.327881 578.261414,254.620514 576.329468,254.337494 
	C564.971741,252.673630 553.607544,251.053101 542.258789,249.330276 
	C540.361877,249.042313 537.772705,249.129639 537.295959,246.754517 
	C536.728943,243.929932 539.575745,243.339111 541.372681,242.452209 
	C562.804077,231.874298 583.105835,219.502350 601.574524,204.290161 
	C607.607727,199.320755 613.097107,193.696579 618.973633,188.529312 
	C622.489136,185.438095 621.305969,183.388718 618.029907,181.240021 
	C607.585327,174.389664 597.184631,167.472000 586.801941,160.528076 
	C585.072266,159.371292 582.595215,158.542480 582.935974,155.832245 
	C583.290955,153.008347 586.074890,153.058716 587.976990,152.510284 
	C605.405273,147.485229 622.878296,142.615448 640.334534,137.686966 
	C653.293030,134.028320 666.245972,130.349823 679.592041,126.563316 
z"/>
<path fill="#000000" opacity="1.000000" stroke="none" 
	d="
M833.312988,629.396362 
	C823.347107,633.715515 813.609985,637.626282 804.134888,642.092834 
	C793.682678,647.020020 788.890625,640.835815 789.034485,632.460144 
	C789.208069,622.348206 787.453125,612.169312 789.973572,602.128967 
	C791.323669,596.750793 794.328125,592.447144 798.587341,589.002747 
	C805.449524,583.453430 812.074463,577.545044 819.344666,572.587646 
	C824.560242,569.031250 826.767822,564.400146 827.713867,558.637939 
	C830.568115,541.251953 833.447754,523.870178 836.290344,506.482330 
	C836.576965,504.728943 837.266663,502.906494 835.640869,500.739349 
	C830.104309,502.502350 825.970764,506.752655 821.268738,509.924011 
	C807.054016,519.511414 793.023621,529.372192 778.929321,539.137817 
	C777.238220,540.309509 775.441772,541.595520 773.498169,540.053162 
	C771.771851,538.683228 772.490784,536.705872 773.060303,534.953186 
	C781.650635,508.516785 786.191162,481.413879 787.025879,453.619751 
	C787.245605,446.304138 787.995789,439.024933 787.357605,431.686646 
	C787.011902,427.712494 789.043640,425.680115 793.117310,425.085724 
	C821.158569,420.994202 849.334106,418.945557 877.673340,419.006104 
	C883.413025,419.018372 889.041687,419.868286 894.351990,421.737457 
	C905.842224,425.781891 911.288940,436.012390 908.786133,448.547424 
	C905.794128,463.532715 902.750305,478.515686 899.290222,493.397614 
	C894.096008,515.738220 888.501770,537.986816 881.928345,559.970947 
	C878.498108,571.442810 875.106567,582.933777 871.310669,594.286743 
	C866.401306,608.970032 856.771667,619.491577 842.375366,625.492065 
	C839.456665,626.708435 836.562683,627.984436 833.312988,629.396362 
z"/>
<path fill="#000000" opacity="1.000000" stroke="none" 
	d="
M319.622314,721.614258 
	C315.657135,727.985168 315.766907,734.320557 316.960907,741.173157 
	C318.526947,750.160889 319.023468,759.331848 320.082947,768.412048 
	C321.024780,776.483459 321.869812,784.577881 323.199432,792.588806 
	C324.344391,799.487122 324.523010,806.462158 325.524200,813.387146 
	C327.661499,828.170715 328.665253,843.117493 330.171417,857.993530 
	C330.472351,860.966003 330.947266,863.920715 331.334137,866.884583 
	C331.835571,870.726074 329.908722,872.654236 326.269745,872.646362 
	C311.780701,872.615295 297.292053,872.384216 282.803101,872.370056 
	C278.329742,872.365662 277.792267,869.006775 277.124969,866.031128 
	C275.378571,858.243896 273.897125,850.396240 272.371796,842.560669 
	C267.197357,815.979736 262.052521,789.392944 256.890015,762.809631 
	C255.275604,754.496643 253.262390,746.239563 252.109421,737.863647 
	C250.579254,726.747437 252.849228,716.052307 256.961273,705.661926 
	C260.325287,697.161682 263.543945,688.595398 266.526703,679.954712 
	C272.217499,663.469116 283.315186,650.185486 292.384491,635.700134 
	C293.797699,633.442993 296.342377,632.704773 298.568329,631.665894 
	C314.062073,624.434570 328.308502,615.285767 341.088806,603.931030 
	C343.670013,601.637817 346.342865,600.490967 349.693695,601.053528 
	C355.595764,602.044495 361.535370,602.887268 367.365936,604.205078 
	C372.290436,605.318115 372.993378,607.181335 370.837402,611.804993 
	C356.212891,643.169006 341.566010,674.522644 326.928802,705.880737 
	C324.536621,711.005554 322.156433,716.135986 319.622314,721.614258 
z"/>
</svg>